<svg width="115" height="72" viewBox="0 0 115 72" fill="none" xmlns="http://www.w3.org/2000/svg">
<rect width="115" height="72" fill="black" fill-opacity="0"/>
<rect width="115" height="72" fill="black" fill-opacity="0"/>
<path fill-rule="evenodd" clip-rule="evenodd" d="M37.7952 59.9703C36.2512 59.9703 35 61.2025 35 62.7231V69.2472C35 70.7664 36.2512 72 37.7952 72H64.2048C65.7488 72 67 70.7664 67 69.2472L66.9846 55L66.8024 55.3988C65.5176 58.182 62.6986 59.9703 59.5923 59.9703H37.7952Z" fill="white"/>
<path fill-rule="evenodd" clip-rule="evenodd" d="M68.2048 12.0303C69.7502 12.0303 71 10.7979 71 9.27699V2.75191C71 1.23242 69.7502 0 68.2048 0H41.7952C40.2512 0 39 1.23242 39 2.75191L39.0154 17L39.1976 16.6025C40.4824 13.8189 43.3014 12.0303 46.4077 12.0303H68.2048Z" fill="white"/>
<path fill-rule="evenodd" clip-rule="evenodd" d="M0 12V59H10.8211V42.6211H26.0154V33.0568H10.8211V21.5642H28V12H0Z" fill="white"/>
<path fill-rule="evenodd" clip-rule="evenodd" d="M104.123 31.1473C104.123 32.6019 102.915 33.7814 101.428 33.7814H90.9756V21.5639H101.428C102.915 21.5639 104.123 22.7421 104.123 24.1967V31.1473ZM104.191 12H80V59H90.9598V43.4121H104.191C110.162 43.4121 115 38.6801 115 32.8437V22.567C115 16.732 110.162 12 104.191 12Z" fill="white"/>
<path fill-rule="evenodd" clip-rule="evenodd" d="M39 34L39.2224 34.6367C40.1812 37.3791 42.6153 39.3718 45.5408 39.8127L55.8165 41.3603C57.0722 41.5505 58 42.6075 58 43.8519V48.4795C58 49.8727 56.847 51 55.4251 51H41.5749C40.153 51 39 49.8727 39 48.4795V34Z" fill="white"/>
<path fill-rule="evenodd" clip-rule="evenodd" d="M67 38L66.7776 37.3633C65.8189 34.6209 63.385 32.6282 60.4597 32.1873L50.1848 30.6397C48.9291 30.4495 48 29.3925 48 28.1481V23.5205C48 22.1286 49.1543 21 50.5761 21H64.4253C65.8471 21 67 22.1286 67 23.5205V38Z" fill="white"/>
</svg>
