<?xml version="1.0" encoding="utf-8"?>
<!-- Generator: Adobe Illustrator 21.0.2, SVG Export Plug-In . SVG Version: 6.00 Build 0)  -->
<svg version="1.1" id="Layer_1" xmlns="http://www.w3.org/2000/svg" xmlns:xlink="http://www.w3.org/1999/xlink" x="0px" y="0px"
	 viewBox="0 0 236.5 105.9" style="enable-background:new 0 0 236.5 105.9;" xml:space="preserve">
<style type="text/css">
	.st0{clip-path:url(#SVGID_2_);}
	.st1{fill:#FFFFFF;}
	.st2{fill:#194277;}
	.st3{fill:#007FC5;}
	.st4{fill:#0080C6;}
	.st5{opacity:0.45;fill:#3D8ACB;}
	.st6{fill:#4294D3;}
	.st7{fill:#4293D2;}
	.st8{fill:#286AB0;}
	.st9{fill:#3F92D1;}
	.st10{fill:#2270AC;}
	.st11{opacity:0.65;fill:#007DC0;}
	.st12{fill:#6F6F6E;}
	.st13{fill:#1C4780;}
	.st14{fill:#A8A8A8;}
</style>
<g>
	<defs>
		<path id="SVGID_1_" d="M87.9,23.1c0,2.6,0.1,13.9,0,16.9c-0.1,2.9-1.4,13-2.2,15.1c-1,2.6-2.4,4.8-4.6,6.7
			c-2.1,1.8-4.1,2.7-6.2,3.5c-4.2,1.5-8.1,2.7-13.9,3.1c0,0,0-54.7,0-57.3c0-4,1.1-7.8,5.9-9.7c1.8-0.7,7.9-1.2,9.8-1.3h17.6
			c-0.6,0.9-2.5,3.5-3.2,5c-1.6,3.4-2.4,7-2.8,10.7C88,18.2,88,20.7,87.9,23.1z M14.3,5c1.6,3.4,2.4,7,2.8,10.7
			c0.2,2.5,0.3,4.9,0.3,7.4c0,2.6-0.1,13.9,0,16.9c0.1,2.9,1.4,13,2.2,15.1c1,2.6,2.4,4.8,4.6,6.7c2.1,1.8,4.1,2.7,6.2,3.5
			c4.2,1.5,8.1,2.7,13.9,3.1c0,0,0-54.7,0-57.3c0-4-1.1-7.8-5.9-9.7c-1.8-0.7-7.9-1.2-9.8-1.3H11.1C11.7,0.9,13.6,3.5,14.3,5z
			 M104.3,48.6c-1.9,4.3-3.7,8.5-7,11.9c-2.5,2.5-5.3,4.6-8.5,6.2c-3.5,1.8-7.2,3-11,3.9c-3.1,0.8-5.9,1.5-7.6,1.8
			c-2.7,0.4-3.6,0.6-6,0.8c-0.7,0.1-2.3,0.2-3.1,0.2c0,2.5,0,14.4,0,16.2c0,2.7,0,9.7,3.5,12.7c3,2.5,8.4,3,11.1,3.3h19.3
			c5.8,0,10.5-4.7,10.5-10.5V45.5C105,46.6,104.7,47.7,104.3,48.6z M40.9,102.3c3.5-3,3.5-10,3.5-12.7c0-1.9,0-13.7,0-16.2
			c-0.9,0-2.4-0.2-3.1-0.2c-2.4-0.2-3.4-0.3-6-0.8c-1.7-0.3-4.6-1-7.6-1.8c-3.8-0.9-7.5-2.2-11-3.9c-3.2-1.6-6.1-3.6-8.5-6.2
			c-3.3-3.4-5.1-7.6-7-11.9c-0.4-0.9-0.8-2-1.1-3.1V95c0,5.8,4.7,10.5,10.5,10.5h19.3C32.6,105.2,37.9,104.8,40.9,102.3z"/>
	</defs>
	<clipPath id="SVGID_2_">
		<use xlink:href="#SVGID_1_"  style="overflow:visible;"/>
	</clipPath>
	<g class="st0">
		<rect x="-10.2" y="-8" class="st1" width="122.6" height="118.3"/>
		<polygon class="st2" points="79.4,126.1 56.7,128.4 35.5,-11.5 58.1,-13.8 		"/>
		<polygon class="st3" points="113.9,109.2 107,113.4 18.1,-4.5 25,-8.8 		"/>
		<polygon class="st4" points="52.9,122.2 41,119.8 72.8,-8.5 84.7,-6.1 		"/>
		<polygon class="st5" points="3.8,108.2 -8.1,105.8 23.7,-22.5 35.6,-20.1 		"/>
		<rect x="80.4" y="-3.6" class="st6" width="12" height="126.7"/>
		<rect x="13.9" y="-18.1" class="st7" width="11.4" height="140.2"/>
		<polygon class="st8" points="21.6,121 2.7,115.7 49.4,-18.1 68.3,-12.7 		"/>
		<polygon class="st9" points="84.2,128.6 52.7,119.3 103.7,-17.9 135.3,-8.6 		"/>
		<polygon class="st10" points="-5.9,49.3 -11.7,25.5 140.2,-4.4 146,19.4 		"/>
		<path class="st11" d="M96,106.4H9.4c-5.7,0-10.4-4.6-10.4-10.4V8.7C-0.9,3,3.7-1.6,9.4-1.6H96c5.7,0,10.4,4.6,10.4,10.4V96
			C106.4,101.8,101.8,106.4,96,106.4z"/>
	</g>
</g>
<path class="st12" d="M120.4,54.6h1.4l4.9,11.5h-1.8l-1.2-2.9h-5.5l-1.1,2.9h-1.8L120.4,54.6z M123.2,61.9l-2.2-5.3h0l-2.2,5.3
	H123.2z"/>
<path class="st12" d="M127.7,63.7c0.6,0.8,1.5,1.2,2.4,1.2c1,0,2.3-0.7,2.3-1.9c0-2.7-5.7-1-5.7-5.5c0-1.4,1.1-3.2,3.9-3.2
	c1.3,0,2.5,0.3,3.3,1.3l-1.3,1.2c-0.4-0.6-1.2-1-2.1-1c-1.7,0-2.2,1-2.2,1.8c0,2.9,5.7,1.2,5.7,5.3c0,2.2-1.8,3.6-4,3.6
	c-1.5,0-2.9-0.5-3.7-1.6L127.7,63.7z"/>
<path class="st12" d="M136,63.7c0.6,0.8,1.5,1.2,2.4,1.2c1,0,2.3-0.7,2.3-1.9c0-2.7-5.7-1-5.7-5.5c0-1.4,1.1-3.2,3.9-3.2
	c1.3,0,2.5,0.3,3.3,1.3l-1.3,1.2c-0.4-0.6-1.2-1-2.1-1c-1.7,0-2.2,1-2.2,1.8c0,2.9,5.7,1.2,5.7,5.3c0,2.2-1.8,3.6-4,3.6
	c-1.5,0-2.9-0.5-3.7-1.6L136,63.7z"/>
<path class="st12" d="M143.2,60.4c0-3.4,2.5-6.1,6-6.1c3.5,0,6,2.6,6,6.1c0,3.4-2.5,6.1-6,6.1C145.7,66.4,143.2,63.8,143.2,60.4z
	 M153.6,60.4c0-2.5-1.7-4.6-4.4-4.6c-2.6,0-4.4,2.1-4.4,4.6c0,2.5,1.7,4.6,4.4,4.6C151.8,65,153.6,62.9,153.6,60.4z"/>
<path class="st12" d="M164.7,57.1c-0.7-0.8-1.7-1.3-2.8-1.3c-2.6,0-4.3,2.1-4.3,4.7c0,2.4,1.6,4.5,4.3,4.5c1.3,0,2.3-0.6,3-1.5
	l1.3,1c-0.3,0.5-1.7,2-4.4,2c-3.7,0-5.9-3.1-5.9-6c0-3.6,2.5-6.2,6-6.2c1.5,0,3.1,0.6,4,1.8L164.7,57.1z"/>
<path class="st12" d="M167.3,54.6h1.6v11.5h-1.6V54.6z"/>
<path class="st12" d="M174.6,54.6h1.4l4.9,11.5h-1.8l-1.2-2.9h-5.5l-1.1,2.9h-1.8L174.6,54.6z M177.5,61.9l-2.2-5.3h0l-2.2,5.3
	H177.5z"/>
<path class="st12" d="M182.6,56.1h-3.7v-1.5h9v1.5h-3.7v10.1h-1.6V56.1z"/>
<path class="st12" d="M188.7,54.6h1.6v11.5h-1.6V54.6z"/>
<path class="st12" d="M191.7,60.4c0-3.4,2.5-6.1,6-6.1c3.5,0,6,2.6,6,6.1c0,3.4-2.5,6.1-6,6.1C194.2,66.4,191.7,63.8,191.7,60.4z
	 M202.1,60.4c0-2.5-1.7-4.6-4.4-4.6c-2.6,0-4.4,2.1-4.4,4.6c0,2.5,1.7,4.6,4.4,4.6C200.4,65,202.1,62.9,202.1,60.4z"/>
<path class="st12" d="M205.2,54.6h2.1l6.4,9.5h0v-9.5h1.6v11.5h-2l-6.4-9.5h0v9.5h-1.6V54.6z"/>
<path class="st12" d="M115.2,74.3h1.8l3.4,9.4h0l3.5-9.4h1.7l-4.5,11.5h-1.5L115.2,74.3z"/>
<path class="st12" d="M129.1,74.3h1.4l4.9,11.5h-1.8l-1.2-2.9h-5.5l-1.1,2.9H124L129.1,74.3z M131.9,81.7l-2.2-5.3h0l-2.2,5.3H131.9
	z"/>
<path class="st12" d="M137.5,74.3v7.1c0,1.4,0.7,3.3,2.9,3.3s2.9-1.9,2.9-3.3v-7.1h1.6v7.3c0,2.7-1.9,4.5-4.5,4.5
	c-2.5,0-4.5-1.8-4.5-4.5v-7.3H137.5z"/>
<path class="st12" d="M146.5,74.3h4c4.9,0,6.1,3.6,6.1,5.8c0,3-2.2,5.8-6.3,5.8h-3.8V74.3z M148.1,84.4h2c2.6,0,4.9-1.5,4.9-4.3
	c0-1.5-0.8-4.3-4.5-4.3h-2.3V84.4z"/>
<path class="st12" d="M157.3,80.1c0-3.4,2.5-6.1,6-6.1s6,2.6,6,6.1c0,3.4-2.5,6.1-6,6.1S157.3,83.5,157.3,80.1z M167.7,80.1
	c0-2.5-1.7-4.6-4.4-4.6c-2.6,0-4.4,2.1-4.4,4.6c0,2.5,1.7,4.6,4.4,4.6C166,84.7,167.7,82.6,167.7,80.1z"/>
<path class="st12" d="M170.8,74.3h1.6v11.5h-1.6V74.3z"/>
<path class="st12" d="M174.8,83.5c0.6,0.8,1.5,1.2,2.4,1.2c1,0,2.3-0.7,2.3-1.9c0-2.7-5.7-1-5.7-5.5c0-1.4,1.1-3.2,3.9-3.2
	c1.3,0,2.5,0.3,3.3,1.3l-1.3,1.2c-0.4-0.6-1.2-1-2.1-1c-1.7,0-2.2,1-2.2,1.8c0,2.9,5.7,1.2,5.7,5.3c0,2.2-1.8,3.6-4,3.6
	c-1.5,0-2.9-0.5-3.7-1.6L174.8,83.5z"/>
<path class="st12" d="M182.7,74.3h7.5v1.5h-5.9v3.4h5.5v1.5h-5.5v3.7h6.2v1.5h-7.7V74.3z"/>
<path class="st12" d="M195.4,74.3h4c4.9,0,6.1,3.6,6.1,5.8c0,3-2.2,5.8-6.3,5.8h-3.8V74.3z M196.9,84.4h2c2.6,0,4.9-1.5,4.9-4.3
	c0-1.5-0.8-4.3-4.5-4.3h-2.3V84.4z"/>
<path class="st12" d="M206.9,74.3h7.5v1.5h-5.9v3.4h5.5v1.5h-5.5v3.7h6.2v1.5h-7.7V74.3z"/>
<path class="st12" d="M216.4,83.5c0.6,0.8,1.5,1.2,2.4,1.2c1,0,2.3-0.7,2.3-1.9c0-2.7-5.7-1-5.7-5.5c0-1.4,1.1-3.2,3.9-3.2
	c1.3,0,2.5,0.3,3.3,1.3l-1.3,1.2c-0.4-0.6-1.2-1-2.1-1c-1.7,0-2.2,1-2.2,1.8c0,2.9,5.7,1.2,5.7,5.3c0,2.2-1.8,3.6-4,3.6
	c-1.5,0-2.9-0.5-3.7-1.6L216.4,83.5z"/>
<path class="st12" d="M116.7,94.1h4.1c3,0,3.7,1.8,3.7,3.2c0,1.5-0.7,3.2-3.7,3.2h-2.5v5.1h-1.6V94.1z M118.3,99.2h2.1
	c1.2,0,2.5-0.3,2.5-1.9s-1.2-1.9-2.5-1.9h-2.1V99.2z"/>
<path class="st12" d="M125.9,103.2c0.6,0.8,1.5,1.2,2.4,1.2c1,0,2.3-0.7,2.3-1.9c0-2.7-5.7-1-5.7-5.5c0-1.4,1.1-3.2,3.9-3.2
	c1.3,0,2.5,0.3,3.3,1.3l-1.3,1.2c-0.4-0.6-1.2-1-2.1-1c-1.7,0-2.2,1-2.2,1.8c0,2.9,5.7,1.2,5.7,5.3c0,2.2-1.8,3.6-4,3.6
	c-1.5,0-2.9-0.5-3.7-1.6L125.9,103.2z"/>
<path class="st12" d="M136.6,100.7l-4.4-6.6h2l3.1,5.1l3.2-5.1h1.9l-4.4,6.6v4.9h-1.6V100.7z"/>
<path class="st12" d="M151,96.6c-0.7-0.8-1.7-1.3-2.8-1.3c-2.6,0-4.3,2.1-4.3,4.7c0,2.4,1.6,4.5,4.3,4.5c1.3,0,2.3-0.6,3-1.5l1.3,1
	c-0.3,0.5-1.7,2-4.4,2c-3.7,0-5.9-3.1-5.9-6c0-3.6,2.5-6.2,6-6.2c1.5,0,3.1,0.6,4,1.8L151,96.6z"/>
<path class="st12" d="M153.7,94.1h1.6v4.8h6v-4.8h1.6v11.5h-1.6v-5.3h-6v5.3h-1.6V94.1z"/>
<path class="st12" d="M164.2,99.9c0-3.4,2.5-6.1,6-6.1s6,2.6,6,6.1c0,3.4-2.5,6.1-6,6.1S164.2,103.3,164.2,99.9z M174.6,99.9
	c0-2.5-1.7-4.6-4.4-4.6c-2.6,0-4.4,2.1-4.4,4.6c0,2.5,1.7,4.6,4.4,4.6C172.9,104.5,174.6,102.4,174.6,99.9z"/>
<path class="st12" d="M177.7,94.1h1.6v10.1h5.3v1.5h-6.9V94.1z"/>
<path class="st12" d="M184.6,99.9c0-3.4,2.5-6.1,6-6.1s6,2.6,6,6.1c0,3.4-2.5,6.1-6,6.1S184.6,103.3,184.6,99.9z M195,99.9
	c0-2.5-1.7-4.6-4.4-4.6s-4.4,2.1-4.4,4.6c0,2.5,1.7,4.6,4.4,4.6S195,102.4,195,99.9z"/>
<path class="st12" d="M207.9,99.2v5.7c-1.1,0.7-3,1.1-4.4,1.1c-3.9,0-6.2-2.8-6.2-6.1c0-3.4,2.5-6.1,6-6.1c2.1,0,3.4,0.6,4.3,1.5
	l-1.1,1.2c-0.9-0.9-2-1.2-3.2-1.2c-2.6,0-4.4,2.1-4.4,4.6c0,2.6,1.9,4.6,4.5,4.6c1.1,0,2.1-0.2,2.8-0.6v-3.2h-2.6v-1.5H207.9z"/>
<path class="st12" d="M211.3,94.1v7.1c0,1.4,0.7,3.3,2.9,3.3s2.9-1.9,2.9-3.3v-7.1h1.6v7.3c0,2.7-1.9,4.5-4.5,4.5s-4.5-1.8-4.5-4.5
	v-7.3H211.3z"/>
<path class="st12" d="M220.6,94.1h7.5v1.5h-5.9V99h5.5v1.5h-5.5v3.7h6.2v1.5h-7.7V94.1z"/>
<path class="st12" d="M230.1,103.2c0.6,0.8,1.5,1.2,2.4,1.2c1,0,2.3-0.7,2.3-1.9c0-2.7-5.7-1-5.7-5.5c0-1.4,1.1-3.2,3.9-3.2
	c1.3,0,2.5,0.3,3.3,1.3l-1.3,1.2c-0.4-0.6-1.2-1-2.1-1c-1.7,0-2.2,1-2.2,1.8c0,2.9,5.7,1.2,5.7,5.3c0,2.2-1.8,3.6-4,3.6
	c-1.5,0-2.9-0.5-3.7-1.6L230.1,103.2z"/>
<g>
	<path class="st13" d="M132.2,2.3h7.1l16.9,38.9h-9.7l-3.3-8.2h-15.1l-3.2,8.2h-9.4L132.2,2.3z M135.5,13.6l-4.7,12.1h9.5
		L135.5,13.6z"/>
	<path class="st13" d="M152.8,2.3h9.8l9.6,25.5h0.1l9.8-25.5h9.2l-16,38.9h-6.9L152.8,2.3z"/>
	<path class="st13" d="M195.3,2.3h14.4c8.1,0,14.8,2.6,14.8,11.8c0,9.1-6.2,11.9-14.4,11.9h-6.3v15.2h-8.6V2.3z M203.9,18.8h5.7
		c3,0,6-1,6-4.7c0-4-4.1-4.6-7.4-4.6h-4.4V18.8z"/>
</g>
<rect x="114.8" y="46.9" class="st14" width="109.8" height="1.7"/>
</svg>
